<?xml version="1.0" encoding="UTF-8"?>
<svg version="1.2" viewBox="33 44 380.006 256" xmlns="http://www.w3.org/2000/svg" width="1024px" height="781.033px" style="aspect-ratio:512/390.52">
    <g fill-rule="evenodd" stroke-linecap="square" stroke-linejoin="bevel">
        <g transform="matrix(2.1296 0 0 2.1296 28.485 301.56)" fill="#ef6f53">
            <path d="m26.04-7.28c-0.7733 2.5333-2.1467 4.4467-4.12 5.74-1.9733 1.2933-4.3333 1.94-7.08 1.94-2.5867 0-4.84-0.54667-6.76-1.64-1.92-1.0933-3.3933-2.66-4.42-4.7s-1.54-4.46-1.54-7.26 0.51333-5.22 1.54-7.26 2.4933-3.6067 4.4-4.7 4.14-1.64 6.7-1.64c2.7467 0 5.0733 0.5733 6.98 1.72s3.22 2.8533 3.94 5.12l-5 2.12c-0.4267-1.5733-1.0933-2.7067-2-3.4s-2.1333-1.04-3.68-1.04c-2.24 0-3.9933 0.7867-5.26 2.36-1.2667 1.5733-1.9 3.8133-1.9 6.72s0.61333 5.1467 1.84 6.72c1.2267 1.5733 2.96 2.36 5.2 2.36 3.2267 0 5.2533-1.56 6.08-4.68l5.08 1.52m16.08-13.12c2.16 0 3.9 0.6267 5.22 1.88s1.98 3.0533 1.98 5.4v13.12h-5.48v-11.52c0-3.04-1.1867-4.56-3.56-4.56-1.28 0-2.3667 0.4533-3.26 1.36s-1.34 2.2933-1.34 4.16v10.56h-5.48v-28.76h5.48v12.16c0.6133-1.28 1.4733-2.2333 2.58-2.86s2.3933-0.94 3.86-0.94m31.52 10.32c0 0.74667-0.0533 1.4667-0.16 2.16h-14.16c0.56 2.8267 2.2267 4.24 5 4.24 1.1467 0 2.0933-0.21333 2.84-0.64s1.2667-1.04 1.56-1.84l4.48 1.64c-0.64 1.6-1.7133 2.82-3.22 3.66s-3.3933 1.26-5.66 1.26c-3.3067 0-5.8667-0.91333-7.68-2.74-1.8133-1.8267-2.72-4.38-2.72-7.66s0.88-5.8333 2.64-7.66 4.24-2.74 7.44-2.74c3.0933 0 5.4733 0.8933 7.14 2.68s2.5 4.3333 2.5 7.64m-9.68-6.28c-1.3333 0-2.3933 0.3867-3.18 1.16s-1.2867 1.92-1.5 3.44h9.32c-0.2133-1.4933-0.72-2.6333-1.52-3.42s-1.84-1.18-3.12-1.18m20.84-5.64v2h6.32v4.08h-6.08v15.92h-5.48v-15.92h-3.48v-4.08h3.48v-2.4c0-2.1867 0.68-3.86 2.04-5.02s3.2-1.74 5.52-1.74c0.88 0 1.6867 0.0933 2.42 0.28s1.3133 0.44 1.74 0.76l-0.76 3.64c-0.6133-0.4-1.3733-0.6-2.28-0.6-2.2933 0-3.44 1.0267-3.44 3.08m21.4 22v-26.4h11.56c3.147 0 5.493 0.62 7.04 1.86s2.32 3.02 2.32 5.34c0 1.4667-0.44 2.74-1.32 3.82s-2.12 1.7533-3.72 2.02v0.04c1.813 0.2667 3.22 0.9533 4.22 2.06s1.5 2.4467 1.5 4.02c0 2.2933-0.827 4.0733-2.48 5.34-1.653 1.2667-4.04 1.9-7.16 1.9h-11.96m5.36-15.32h5.44c2.933 0 4.4-1.1333 4.4-3.4s-1.467-3.4-4.4-3.4h-5.44v6.8m0 11.16h6.12c1.467 0 2.567-0.3 3.3-0.9s1.1-1.46 1.1-2.58-0.367-1.9733-1.1-2.56c-0.733-0.5867-1.833-0.88-3.3-0.88h-6.12v6.92m23.72-18.72c-2.267 0-3.4-0.9733-3.4-2.92 0-1.9733 1.133-2.96 3.4-2.96s3.4 0.9867 3.4 2.96c0 1.9467-1.133 2.92-3.4 2.92m2.72 2.88v20h-5.48v-20h5.48m24.48 9.92c0 0.74667-0.053 1.4667-0.16 2.16h-14.16c0.56 2.8267 2.227 4.24 5 4.24 1.147 0 2.093-0.21333 2.84-0.64s1.267-1.04 1.56-1.84l4.48 1.64c-0.64 1.6-1.713 2.82-3.22 3.66s-3.393 1.26-5.66 1.26c-3.307 0-5.867-0.91333-7.68-2.74-1.813-1.8267-2.72-4.38-2.72-7.66s0.88-5.8333 2.64-7.66 4.24-2.74 7.44-2.74c3.093 0 5.473 0.8933 7.14 2.68s2.5 4.3333 2.5 7.64m-9.68-6.28c-1.333 0-2.393 0.3867-3.18 1.16s-1.287 1.92-1.5 3.44h9.32c-0.213-1.4933-0.72-2.6333-1.52-3.42s-1.84-1.18-3.12-1.18m25.6-4.04c0.933 0 1.653 0.1467 2.16 0.44l-0.68 4.8c-0.613-0.4-1.453-0.6-2.52-0.6-1.307 0-2.433 0.4733-3.38 1.42s-1.42 2.2733-1.42 3.98v10.36h-5.48v-20h4.76l0.36 3.92c1.093-2.88 3.16-4.32 6.2-4.32" fill-rule="nonzero" />
        </g>
        <g transform="matrix(1.6441 0 0 1.6441 60.201 -46.195)" fill="#285a84">
            <path d="m99.018 44.568c-31.86 0-57.781 25.921-57.781 57.781s25.921 57.781 57.781 57.781 57.78-25.921 57.78-57.781-25.92-57.781-57.78-57.781m0 112.56c-30.206 0-54.781-24.575-54.781-54.781s24.575-54.781 54.781-54.781 54.78 24.575 54.78 54.781-24.574 54.781-54.78 54.781" fill-rule="nonzero" />
        </g>
        <g transform="matrix(1.6441 0 0 1.6441 60.201 -46.195)" fill="#285a84">
            <path d="m99.018 53.058c-27.18 0-49.292 22.112-49.292 49.292 0 0.828 0.6716 1.5 1.5 1.5s1.5-0.672 1.5-1.5c0-25.525 20.767-46.292 46.292-46.292s46.291 20.767 46.291 46.292c0 0.828 0.672 1.5 1.5 1.5s1.5-0.672 1.5-1.5c0-27.18-22.113-49.292-49.291-49.292" fill-rule="nonzero" />
        </g>
        <g transform="matrix(1.6441 0 0 1.6441 60.201 -46.195)" fill="#285a84">
            <path d="m132.05 104.78h-11.517v-3.617l-2e-3 -0.024 2e-3 -0.023v-7.134h5.55c0.828 0 1.5-0.6716 1.5-1.5v-13.623c0-0.8284-0.672-1.5-1.5-1.5h-5.55v-1.283c0.083-0.09 0.16-0.187 0.222-0.3 0.977-1.794 0.768-3.121 0.419-3.918-0.45-1.032-1.298-1.62-1.934-1.932-0.571-1.263-1.429-1.841-2.096-2.105-0.801-0.317-1.61-0.307-2.289-0.182-0.729-1.791-1.831-3.025-3.292-3.682-1.88-0.844-3.819-0.438-4.914-0.068-0.783-0.4583-1.693-0.6482-2.594-0.541-1.734 0.209-3.121 1.447-3.862 2.263-0.2937-0.0044-0.5873 0.0147-0.878 0.057-2.084-2.641-5.134-2.475-7.088-1.789-0.7789-0.4502-1.6826-0.6362-2.576-0.53-1.734 0.209-3.121 1.447-3.862 2.263-1.451-0.032-2.442 0.457-3.035 0.931-0.762 0.608-1.185 1.389-1.42 2.05-1.277 0.244-2.383 1.015-3.141 2.223-0.918 1.462-1.087 3.198-0.42 4.321 0.099 0.167 0.234 0.299 0.38 0.414v25.567c0 0.03 7e-3 0.058 9e-3 0.088-2e-3 0.03-9e-3 0.058-9e-3 0.088v3.488h-12.16c-0.8284 0-1.5 0.672-1.5 1.5v32.684c0 0.828 0.6716 1.5 1.5 1.5h66.057c0.828 0 1.5-0.672 1.5-1.5v-32.684c0-0.83-0.672-1.502-1.5-1.502m-14.517-25.921v20.811l-2.108 0.011v-19.449c0-0.8284-0.672-1.5-1.5-1.5s-1.5 0.6716-1.5 1.5v19.465l-2.109 0.011v-19.476c0-0.8284-0.672-1.5-1.5-1.5s-1.5 0.6716-1.5 1.5v19.491l-2.108 0.011v-19.502c0-0.8284-0.672-1.5-1.5-1.5s-1.5 0.6716-1.5 1.5v19.517l-2.108 0.011v-19.528c0-0.8284-0.6716-1.5-1.5-1.5s-1.5 0.6716-1.5 1.5v19.544l-1.541 8e-3v-23.398h21.976v2.473h-2e-3m-21.975 23.925 21.976-0.113v1.092l-21.976 0.113v-1.092m-3-26.398v23.339l-1.755 9e-3v-19.502c0-0.8284-0.6716-1.5-1.5-1.5s-1.5 0.6716-1.5 1.5v19.517l-2.108 0.011v-19.528c0-0.8284-0.6716-1.5-1.5-1.5s-1.5 0.6716-1.5 1.5v19.544l-1.541 8e-3v-23.398h11.404m-11.405 26.398 11.404-0.06v1.093l-11.404 0.058v-1.091m43.43-22.425v10.623h-4.05v-10.623h4.05m-23.987-11.698c0.564 0.0933 1.132-0.1412 1.466-0.605 0.298-0.412 1.37-1.613 2.358-1.729 0.244-0.033 0.588-0.011 1.052 0.392 0.464 0.3952 1.119 0.4743 1.664 0.201 0.018-0.01 1.776-0.875 3.214-0.218 0.962 0.438 1.668 1.521 2.097 3.213 0.117 0.4505 0.436 0.8215 0.864 1.0053s0.916 0.1597 1.324-0.0653c0.269-0.146 0.994-0.408 1.408-0.243 0.302 0.123 0.489 0.558 0.593 0.899 0.153 0.503 0.558 0.889 1.066 1.019 0.068 0.018 0.586 0.218 0.723 0.529 0.036 0.1051 0.046 0.2172 0.03 0.327h-23.669c0.0573-0.4482 0.24-0.871 0.527-1.22 0.403-0.49 0.896-0.697 1.503-0.65 0.404 0.04 0.806-0.094 1.112-0.36 0.307-0.266 0.492-0.645 0.516-1.049 0-8e-3 0.085-0.818 0.589-1.222 0.331-0.266 0.857-0.341 1.563-0.224m-18.185 2.855c0.406 0.04 0.806-0.094 1.112-0.36 0.307-0.266 0.492-0.645 0.516-1.049 0-8e-3 0.085-0.818 0.589-1.222 0.332-0.266 0.857-0.341 1.563-0.224 0.5639 0.0926 1.1316-0.1417 1.466-0.605 0.298-0.412 1.37-1.613 2.358-1.729 0.244-0.033 0.588-0.011 1.052 0.392 0.4649 0.4018 1.1278 0.4795 1.673 0.196 0.263-0.137 2.292-1.11 3.828 0.215-0.4 0.48-0.665 0.999-0.83 1.461-1.277 0.244-2.383 1.015-3.141 2.223-0.517 0.824-0.787 1.732-0.813 2.571h-11.403c0.0573-0.4482 0.24-0.8711 0.527-1.22 0.404-0.489 0.897-0.696 1.503-0.649m48.139 65.948h-63.057v-29.684h63.057v29.684" fill-rule="nonzero" />
        </g>
        <g transform="matrix(1.6441 0 0 1.6441 60.201 -46.195)" fill="#285a84">
            <path d="m73.435 122.63c0 0.828 0.6716 1.5 1.5 1.5h12.78c0.738 5.585 5.519 9.913 11.303 9.913s10.564-4.328 11.303-9.913h12.78c0.828 0 1.5-0.672 1.5-1.5s-0.672-1.5-1.5-1.5h-12.78c-0.738-5.585-5.519-9.913-11.303-9.913s-10.564 4.328-11.303 9.913h-12.78c-0.8284 0-1.5 0.672-1.5 1.5m25.583 8.413c-4.126 0-7.561-2.989-8.271-6.913h16.543c-0.712 3.925-4.146 6.913-8.272 6.913m0-16.826c4.126 0 7.561 2.989 8.271 6.913h-16.543c0.711-3.924 4.146-6.913 8.272-6.913" fill-rule="nonzero" />
        </g>
        <g transform="matrix(1.6441 0 0 1.6441 60.201 -46.195)" fill="#285a84">
            <path d="m72.808 117.01c0.8284 0 1.5-0.672 1.5-1.5v-3.614c0-0.828-0.6716-1.5-1.5-1.5s-1.5 0.672-1.5 1.5v3.614c0 0.828 0.6716 1.5 1.5 1.5" fill-rule="nonzero" />
        </g>
        <g transform="matrix(1.6441 0 0 1.6441 60.201 -46.195)" fill="#285a84">
            <path d="m126.25 134.86c0.828 0 1.5-0.672 1.5-1.5v-3.614c0-0.828-0.672-1.5-1.5-1.5s-1.5 0.672-1.5 1.5v3.614c0 0.828 0.672 1.5 1.5 1.5" fill-rule="nonzero" />
        </g>
        <g transform="translate(33 310.29)" fill="#285a84">
            <path d="m0 0h380v6.6265h-380v-6.6265" fill-rule="nonzero" />
        </g>
    </g>
</svg>