<?xml version="1.0" encoding="UTF-8"?>
<svg id="Laag_1" data-name="Laag 1" xmlns="http://www.w3.org/2000/svg" width="1139.77" height="530.61" xmlns:xlink="http://www.w3.org/1999/xlink" viewBox="0 0 1139.77 530.61">
  <defs>
    <style>
      .cls-1, .cls-2 {
        fill: #fff;
      }

      .cls-1, .cls-3, .cls-4 {
        stroke-miterlimit: 10;
      }

      .cls-1, .cls-4 {
        stroke: #fff;
        stroke-width: .3px;
      }

      .cls-5 {
        fill: #1d1d1b;
      }

      .cls-3 {
        stroke: #de9e00;
        stroke-width: 9.31px;
      }

      .cls-3, .cls-4 {
        fill: none;
      }

      .cls-6 {
        clip-path: url(#clippath-1);
      }

      .cls-7 {
        clip-path: url(#clippath-2);
      }

      .cls-8 {
        clip-path: url(#clippath);
      }
    </style>
    <clipPath id="clippath">
      <path class="cls-1" d="M231.2,407.46c-3.11-.64-6.28-.43-9.41-.77-6.52-.71-12.93-1.72-19.02-4.37-5.59-2.44-8.59-6.61-9.84-12.54-1.42-6.72-1.19-13.43-.91-20.19,.28-6.71,.41-13.43,.42-20.14,.06-31.1,.06-62.19,.07-93.29,0-6.83-.1-13.68,.47-20.48,.45-5.42,2.61-10.42,4.96-15.28,1.33-2.74,2.88-5.35,4.66-7.82,3.44-4.79,4.92-10.19,5.24-16.03,.5-9.24,.93-18.48,1.71-27.7,.66-7.85,1.41-15.69,2.39-23.5,1.14-9.15,2.46-18.28,4.22-27.34,.37-1.88,.58-3.8,.84-5.7,.07-.49,.19-1.09-.25-1.41-2.47-1.8-1.79-4.31-1.43-6.66,.43-2.81,1.08-5.58,1.65-8.37,.22-1.06,.15-2-.41-3.02-2-3.63,.91-8.85,5.03-8.95,9.05-.22,18.1-.55,27.15-.04,4.95,.28,7.69,5.01,5.42,9.41-.45,.87-.36,1.69-.18,2.52,.73,3.51,1.46,7.02,1.93,10.59,.21,1.58,0,3.01-1.26,4.06-.74,.62-.82,1.32-.68,2.16,1.42,8.86,3,17.7,4.22,26.59,.95,6.99,1.82,13.99,2.38,21.04,.5,6.22,1.19,12.44,1.56,18.67,.35,5.77,.78,11.53,.98,17.3,.22,6.06,1.86,11.58,5.37,16.56,4.62,6.56,7.73,13.82,9.41,21.65,.45,2.11,.55,4.3,.55,6.49,0,36.2-.01,72.39,.09,108.59,.03,10.57,.48,21.13,.61,31.7,.05,3.66-.6,7.28-1.51,10.83-1.03,4.01-3.48,6.93-6.99,9.01-4.77,2.82-10.03,4.08-15.43,4.9-4.65,.71-9.33,1.1-14.03,1.25-.35,.01-.7,.18-1.05,.28h-8.93Zm4.39-318.99h0c-4.15,.01-8.31-.03-12.46,.03-2.18,.03-2.77,1.06-1.81,2.97,.52,1.04,.77,2.12,.58,3.24-.56,3.3-1.18,6.59-1.79,9.88-.23,1.24-.41,2.36,.79,3.35,.75,.62,1.06,1.67,.97,2.72-.15,1.73-.2,3.48-.49,5.19-1.28,7.71-2.64,15.41-3.73,23.15-2.52,17.92-4.19,35.91-4.75,54-.27,8.89-2.31,17-7.65,24.42-5.86,8.14-8.42,17.63-8.42,27.7,0,5.15,.41,10.3,.42,15.45,.05,24.01,.07,48.01,0,72.02-.03,12.19-.16,24.38-.45,36.57-.12,5.28-.45,10.54,.07,15.83,.89,9.07,3.34,11.95,11.6,14.44,7.46,2.25,15.2,2.81,22.91,3.14,7.93,.34,15.85-.23,23.69-1.5,4.58-.74,9.12-1.65,13.19-4.13,2.59-1.58,4.29-3.72,4.86-6.71,.34-1.76,.67-3.53,.9-5.32,.74-5.52,.12-11.04,.09-16.57-.1-16.1-.64-32.19-.19-48.29,.2-7-.19-14.01-.22-21.02-.08-17.91-.11-35.82,.3-53.73,.21-9.29-2.3-17.94-6.99-25.94-1.5-2.57-3.35-4.93-4.82-7.52-3.16-5.55-3.8-11.74-4.1-17.97-.55-11.53-.98-23.07-2.28-34.56-.95-8.39-1.97-16.77-3.21-25.12-1.03-6.94-2.25-13.84-3.35-20.77-.35-2.24-.51-4.51,1.49-6.2,.56-.47,.34-1.01,.25-1.53-.57-3.05-1.19-6.09-1.74-9.14-.28-1.59-.51-3.19,.23-4.75,1.16-2.45,.6-3.31-2.19-3.32-3.91-.01-7.81,0-11.72,0Z"/>
    </clipPath>
    <clipPath id="clippath-1">
      <path class="cls-1" d="M318.07,407.51c-2.36-.49-4.78-.32-7.17-.59-4.96-.54-9.84-1.31-14.47-3.33-4.25-1.86-6.54-5.03-7.49-9.55-1.08-5.11-.91-10.22-.69-15.37,.21-5.11,.31-10.22,.32-15.33,.04-23.67,.04-47.34,.05-71.01,0-5.2-.07-10.41,.36-15.59,.34-4.12,1.99-7.93,3.78-11.63,1.01-2.08,2.19-4.07,3.55-5.95,2.62-3.64,3.75-7.76,3.99-12.2,.38-7.03,.71-14.07,1.3-21.09,.5-5.97,1.07-11.94,1.82-17.89,.87-6.97,1.87-13.92,3.22-20.81,.28-1.43,.44-2.89,.64-4.34,.05-.37,.14-.83-.19-1.07-1.88-1.37-1.36-3.28-1.09-5.07,.33-2.14,.82-4.25,1.25-6.37,.16-.81,.11-1.52-.31-2.3-1.52-2.76,.7-6.74,3.83-6.82,6.89-.17,13.78-.42,20.66-.03,3.77,.21,5.85,3.81,4.13,7.17-.34,.66-.27,1.29-.14,1.92,.56,2.67,1.11,5.35,1.47,8.06,.16,1.21,0,2.29-.96,3.09-.57,.47-.62,1-.52,1.64,1.08,6.74,2.29,13.47,3.21,20.24,.73,5.32,1.39,10.65,1.81,16.02,.38,4.74,.9,9.47,1.19,14.21,.26,4.39,.59,8.78,.75,13.17,.17,4.61,1.42,8.81,4.09,12.6,3.51,4.99,5.88,10.52,7.16,16.48,.34,1.6,.42,3.27,.42,4.94,0,27.55,0,55.1,.07,82.65,.02,8.04,.36,16.08,.46,24.13,.03,2.79-.46,5.54-1.15,8.24-.78,3.05-2.65,5.28-5.32,6.86-3.63,2.15-7.64,3.11-11.74,3.73-3.54,.54-7.1,.84-10.68,.95-.27,0-.54,.14-.8,.21h-6.8Zm3.34-242.81h0c-3.16,0-6.32-.03-9.49,.02-1.66,.02-2.11,.81-1.38,2.26,.4,.79,.59,1.61,.44,2.47-.43,2.51-.9,5.02-1.36,7.52-.18,.94-.31,1.79,.6,2.55,.57,.47,.81,1.27,.74,2.07-.12,1.32-.16,2.65-.37,3.95-.97,5.87-2.01,11.73-2.84,17.62-1.92,13.64-3.19,27.34-3.61,41.1-.21,6.77-1.75,12.94-5.82,18.59-4.46,6.2-6.41,13.42-6.41,21.09,0,3.92,.31,7.84,.32,11.76,.04,18.27,.05,36.55,0,54.82-.02,9.28-.12,18.56-.34,27.83-.09,4.02-.34,8.02,.05,12.05,.68,6.9,2.54,9.09,8.83,10.99,5.68,1.71,11.57,2.14,17.44,2.39,6.04,.26,12.06-.18,18.03-1.14,3.48-.56,6.95-1.26,10.04-3.15,1.97-1.2,3.26-2.83,3.7-5.11,.26-1.34,.51-2.69,.69-4.05,.56-4.2,.09-8.41,.07-12.61-.07-12.25-.49-24.5-.14-36.76,.15-5.33-.14-10.67-.16-16-.06-13.63-.08-27.27,.23-40.9,.16-7.07-1.75-13.66-5.32-19.74-1.15-1.95-2.55-3.76-3.67-5.72-2.4-4.23-2.89-8.94-3.12-13.68-.42-8.78-.75-17.56-1.74-26.3-.73-6.39-1.5-12.77-2.45-19.12-.78-5.28-1.71-10.54-2.55-15.81-.27-1.71-.39-3.43,1.13-4.72,.43-.36,.26-.77,.19-1.17-.44-2.32-.91-4.63-1.32-6.96-.22-1.21-.39-2.43,.17-3.62,.89-1.87,.45-2.52-1.67-2.53-2.97,0-5.95,0-8.92,0Z"/>
    </clipPath>
    <clipPath id="clippath-2">
      <path class="cls-1" d="M146.14,407.46c-2.36-.49-4.78-.32-7.17-.59-4.96-.54-9.84-1.31-14.47-3.33-4.25-1.86-6.54-5.03-7.49-9.55-1.08-5.11-.91-10.22-.69-15.37,.21-5.11,.31-10.22,.32-15.33,.04-23.67,.04-47.34,.05-71.01,0-5.2-.07-10.41,.36-15.59,.34-4.12,1.99-7.93,3.78-11.63,1.01-2.08,2.19-4.07,3.55-5.95,2.62-3.64,3.75-7.76,3.99-12.2,.38-7.03,.71-14.07,1.3-21.09,.5-5.97,1.07-11.94,1.82-17.89,.87-6.97,1.87-13.92,3.22-20.81,.28-1.43,.44-2.89,.64-4.34,.05-.37,.14-.83-.19-1.07-1.88-1.37-1.36-3.28-1.09-5.07,.33-2.14,.82-4.25,1.25-6.37,.16-.81,.11-1.52-.31-2.3-1.52-2.76,.7-6.74,3.83-6.82,6.89-.17,13.78-.42,20.66-.03,3.77,.21,5.85,3.81,4.13,7.17-.34,.66-.27,1.29-.14,1.92,.56,2.67,1.11,5.35,1.47,8.06,.16,1.21,0,2.29-.96,3.09-.57,.47-.62,1-.52,1.64,1.08,6.74,2.29,13.47,3.21,20.24,.73,5.32,1.39,10.65,1.81,16.02,.38,4.74,.9,9.47,1.19,14.21,.26,4.39,.59,8.78,.75,13.17,.17,4.61,1.42,8.81,4.09,12.6,3.51,4.99,5.88,10.52,7.16,16.48,.34,1.6,.42,3.27,.42,4.94,0,27.55,0,55.1,.07,82.65,.02,8.04,.36,16.08,.46,24.13,.03,2.79-.46,5.54-1.15,8.24-.78,3.05-2.65,5.28-5.32,6.86-3.63,2.15-7.64,3.11-11.74,3.73-3.54,.54-7.1,.84-10.68,.95-.27,0-.54,.14-.8,.21h-6.8Zm3.34-242.81h0c-3.16,0-6.32-.03-9.49,.02-1.66,.02-2.11,.81-1.38,2.26,.4,.79,.59,1.61,.44,2.47-.43,2.51-.9,5.02-1.36,7.52-.18,.94-.31,1.79,.6,2.55,.57,.47,.81,1.27,.74,2.07-.12,1.32-.16,2.65-.37,3.95-.97,5.87-2.01,11.73-2.84,17.62-1.92,13.64-3.19,27.34-3.61,41.1-.21,6.77-1.75,12.94-5.82,18.59-4.46,6.2-6.41,13.42-6.41,21.09,0,3.92,.31,7.84,.32,11.76,.04,18.27,.05,36.55,0,54.82-.02,9.28-.12,18.56-.34,27.83-.09,4.02-.34,8.02,.05,12.05,.68,6.9,2.54,9.09,8.83,10.99,5.68,1.71,11.57,2.14,17.44,2.39,6.04,.26,12.06-.18,18.03-1.14,3.48-.56,6.95-1.26,10.04-3.15,1.97-1.2,3.26-2.83,3.7-5.11,.26-1.34,.51-2.69,.69-4.05,.56-4.2,.09-8.41,.07-12.61-.07-12.25-.49-24.5-.14-36.76,.15-5.33-.14-10.67-.16-16-.06-13.63-.08-27.27,.23-40.9,.16-7.07-1.75-13.66-5.32-19.74-1.15-1.95-2.55-3.76-3.67-5.72-2.4-4.23-2.89-8.94-3.12-13.68-.42-8.78-.75-17.56-1.74-26.3-.73-6.39-1.5-12.77-2.45-19.12-.78-5.28-1.71-10.54-2.55-15.81-.27-1.71-.39-3.43,1.13-4.72,.43-.36,.26-.77,.19-1.17-.44-2.32-.91-4.63-1.32-6.96-.22-1.21-.39-2.43,.17-3.62,.89-1.87,.45-2.52-1.67-2.53-2.97,0-5.95,0-8.92,0Z"/>
    </clipPath>
  </defs>
  <g>
    <path class="cls-5" d="M453.39,473.96c-2.41,0-4.88-.2-7.22-.6v-9.89c2.47,.6,5.08,1.14,7.69,1.14,2.28,0,5.28-.47,5.28-3.41,0-1.6-2.27-2.81-5.08-4.21-4.61-2.41-10.63-5.48-10.63-12.3,0-6.15,5.15-10.1,10.57-11.7,2.54-.74,5.28-1.07,7.95-1.07,2.2,0,4.48,.2,6.62,.6v10.16c-2.14-.73-4.42-1.2-6.69-1.2-1.81,0-5.55,.4-5.55,2.94,0,1.54,2.14,2.61,4.88,4.01,4.62,2.41,10.83,5.62,10.83,13.04,0,9.7-10.77,12.5-18.66,12.5Z"/>
    <path class="cls-5" d="M490.91,473.82c-9.36,0-15.31-4.95-15.31-14.51,0-10.9,9.03-17.92,19.45-17.92,1.34,0,2.74,.07,4.08,.27v11.23c-1.27-.87-3.68-1-5.15-1-3.54,0-7.82,2.67-7.82,6.55,0,3.54,2.61,4.81,5.82,4.81,2.14,0,5.48-.47,7.15-1.87v10.96c-2.61,.94-5.42,1.47-8.23,1.47Z"/>
    <path class="cls-5" d="M516.34,473.82c-8.96,0-14.51-5.55-14.51-14.51,0-9.56,8.42-17.92,17.92-17.92,8.96,0,14.57,5.55,14.57,14.51,0,9.49-8.42,17.92-17.98,17.92Zm2.54-21.93c-3.41,0-6.48,3.14-6.48,6.55,0,3.08,1.74,4.81,4.88,4.81,3.41,0,6.48-3.07,6.48-6.48,0-3.14-1.74-4.88-4.88-4.88Z"/>
    <path class="cls-5" d="M558.88,472.95v-13.37c-4.35,8.76-11.1,12.57-20.53,13.84v-31.22h10.63v15.98c6.02-3.34,8.76-9.7,10.96-15.98h9.56v30.76h-10.63Z"/>
    <path class="cls-5" d="M589.71,450.82v22.13h-10.63v-22.13h-6.22v-8.63h6.22v-10.5h10.63v10.5h9.76v8.63h-9.76Z"/>
    <path class="cls-5" d="M606.24,440.6c-2.61,0-4.48-1.8-4.48-4.48,0-4.15,4.28-8.36,8.42-8.36,2.61,0,4.48,1.8,4.48,4.48,0,4.15-4.28,8.36-8.42,8.36Zm-3.41,32.36v-30.76h10.63v30.76h-10.63Z"/>
    <path class="cls-5" d="M639.35,472.95v-15.98c-6.02,3.41-8.76,9.76-10.9,15.98h-9.63v-30.76h10.63v13.44c4.34-8.76,11.1-12.64,20.52-13.84v31.16h-10.63Z"/>
    <path class="cls-5" d="M668.58,490.8c-7.56,0-11.57-6.22-11.57-13.24h9.23c-.07,1.87,.87,4.08,3.08,4.08,5.28,0,6.48-8.82,6.69-13.64,0-.47,.07-1,.07-1.4-2.27,4.68-6.15,7.62-11.43,7.62-6.55,0-10.63-6.02-10.63-12.1,0-17.25,19.18-20.32,32.63-20.32v24.27c0,11.17-5.15,24.74-18.05,24.74Zm7.42-38.44c-.87,.4-10.7,1.54-10.7,7.69,0,1.87,1.07,3.21,2.95,3.21,7.28,0,7.49-10.16,7.75-10.9Z"/>
    <path class="cls-5" d="M730.52,472.95v-15.71h-11.37v15.71h-12.17v-40.12h12.17v14.44h11.37v-14.44h12.17v40.12h-12.17Z"/>
    <path class="cls-5" d="M769.25,472.95v-13.37c-4.35,8.76-11.1,12.57-20.53,13.84v-31.22h10.63v15.98c6.02-3.34,8.76-9.7,10.96-15.98h9.56v30.76h-10.63Z"/>
    <path class="cls-5" d="M788.66,440.6c-2.61,0-4.48-1.8-4.48-4.48,0-4.15,4.28-8.36,8.42-8.36,2.61,0,4.48,1.8,4.48,4.48,0,4.15-4.28,8.36-8.42,8.36Zm-3.41,32.36v-30.76h10.63v30.76h-10.63Z"/>
    <path class="cls-5" d="M807.65,473.56c-2,0-3.94-.13-5.81-.47v-9.22c2.27,.53,4.61,.87,6.95,.87,1.14,0,4.68-.07,4.68-1.74,0-1.07-1.87-1.6-4.21-2.27-3.95-1.14-9.36-2.67-9.36-7.96,0-8.56,9.36-11.1,16.38-11.1,1.8,0,3.67,.13,5.48,.47v8.82c-2.28-.4-4.48-.67-6.76-.67-1.07,0-4.75,0-4.75,1.61,0,1.14,1.74,1.6,4.01,2.2,3.95,1,9.36,2.41,9.36,8.63,0,8.56-9.02,10.83-15.98,10.83Z"/>
    <path class="cls-5" d="M834.08,473.56c-2,0-3.94-.13-5.81-.47v-9.22c2.27,.53,4.61,.87,6.95,.87,1.14,0,4.68-.07,4.68-1.74,0-1.07-1.87-1.6-4.21-2.27-3.95-1.14-9.36-2.67-9.36-7.96,0-8.56,9.36-11.1,16.38-11.1,1.8,0,3.67,.13,5.48,.47v8.82c-2.28-.4-4.48-.67-6.76-.67-1.07,0-4.75,0-4.75,1.61,0,1.14,1.74,1.6,4.01,2.2,3.95,1,9.36,2.41,9.36,8.63,0,8.56-9.02,10.83-15.98,10.83Z"/>
    <path class="cls-5" d="M884.37,460.45h-21.26c.2,2.81,3.95,4.01,6.35,4.01,2.28,0,6.35-.54,8.29-1.74v9.03c-2.81,1.27-5.95,2.07-8.96,2.07-9.16,0-16.04-4.88-16.04-14.51,0-10.5,8.89-17.92,19.05-17.92,9.36,0,12.9,7.16,12.97,15.44,0,1.21-.13,2.41-.4,3.61Zm-13.64-10.36c-2.47,0-5.42,1.34-6.55,3.61h10.9c.07-2.21-2.41-3.61-4.35-3.61Z"/>
    <path class="cls-5" d="M909.33,472.95v-15.98c-6.02,3.41-8.76,9.76-10.9,15.98h-9.63v-30.76h10.63v13.44c4.34-8.76,11.1-12.64,20.52-13.84v31.16h-10.63Z"/>
    <path class="cls-5" d="M923.99,462.99v-9.89h15.51v9.89h-15.51Z"/>
    <path class="cls-5" d="M957.02,462.99h16.38v9.96h-35.9l16.78-30.15h-13.64v-9.96h33.16l-16.78,30.15Z"/>
    <path class="cls-5" d="M998.9,472.95v-6.28c-2.27,4.68-6.15,7.56-11.43,7.56-6.55,0-10.63-5.95-10.63-12.04,0-17.31,19.18-20.39,32.69-20.39v31.16h-10.63Zm-10.76-12.84c0,1.87,1.07,3.14,3.01,3.14,1.14,0,2.2-.4,3.21-1,3.28-2.07,4.55-6.22,4.55-9.89-3.94,.6-10.76,2.81-10.76,7.75Z"/>
    <path class="cls-5" d="M1035.42,472.95v-15.98c-6.02,3.41-8.76,9.76-10.9,15.98h-9.63v-30.76h10.63v13.44c4.34-8.76,11.1-12.64,20.52-13.84v31.16h-10.63Z"/>
    <path class="cls-5" d="M1072.14,472.95v-6.28c-2.27,4.68-6.15,7.56-11.43,7.56-6.55,0-10.63-5.95-10.63-12.04,0-13.04,10.83-18.05,22.06-19.66v-14.11h10.63v44.53h-10.63Zm-10.76-12.84c0,1.87,1.07,3.14,3.01,3.14,1.14,0,2.2-.4,3.21-1,3.28-2.07,4.55-6.22,4.55-9.89-3.94,.6-10.76,2.81-10.76,7.75Z"/>
  </g>
  <path class="cls-5" d="M1139.77,135.24V395.37c0,14.17-11.49,25.67-25.67,25.67H443.43l-176.01,101.62c-18.38,10.61-41.02,10.61-59.39,0L29.7,419.7c-18.38-10.61-29.7-30.22-29.7-51.43V162.35c0-21.22,11.32-40.83,29.7-51.43L208.02,7.96c18.38-10.61,41.02-10.61,59.39,0l176.01,101.62h670.68c14.18,0,25.67,11.49,25.67,25.67Z"/>
  <path class="cls-3" d="M1113.94,163.21v204.16c0,14.27-11.57,25.84-25.84,25.84H431.41c-2.55,1.44-4.6,2.67-6.64,3.92s-4.09,2.53-6.64,4.06l-156.94,90.61c-16.17,9.34-36.1,9.34-52.27,0L51.97,401.18c-16.17-9.34-26.14-26.59-26.14-45.27V174.69c0-18.67,9.96-35.93,26.14-45.27L208.91,38.81c16.17-9.34,36.1-9.34,52.27,0l156.94,90.61c5.51,3.47,8.48,5.21,13.29,7.98h656.73c14.25,0,25.8,11.55,25.8,25.8Z"/>
  <g>
    <path class="cls-2" d="M231.2,407.46c-3.11-.64-6.28-.43-9.41-.77-6.52-.71-12.93-1.72-19.02-4.37-5.59-2.44-8.59-6.61-9.84-12.54-1.42-6.72-1.19-13.43-.91-20.19,.28-6.71,.41-13.43,.42-20.14,.06-31.1,.06-62.19,.07-93.29,0-6.83-.1-13.68,.47-20.48,.45-5.42,2.61-10.42,4.96-15.28,1.33-2.74,2.88-5.35,4.66-7.82,3.44-4.79,4.92-10.19,5.24-16.03,.5-9.24,.93-18.48,1.71-27.7,.66-7.85,1.41-15.69,2.39-23.5,1.14-9.15,2.46-18.28,4.22-27.34,.37-1.88,.58-3.8,.84-5.7,.07-.49,.19-1.09-.25-1.41-2.47-1.8-1.79-4.31-1.43-6.66,.43-2.81,1.08-5.58,1.65-8.37,.22-1.06,.15-2-.41-3.02-2-3.63,.91-8.85,5.03-8.95,9.05-.22,18.1-.55,27.15-.04,4.95,.28,7.69,5.01,5.42,9.41-.45,.87-.36,1.69-.18,2.52,.73,3.51,1.46,7.02,1.93,10.59,.21,1.58,0,3.01-1.26,4.06-.74,.62-.82,1.32-.68,2.16,1.42,8.86,3,17.7,4.22,26.59,.95,6.99,1.82,13.99,2.38,21.04,.5,6.22,1.19,12.44,1.56,18.67,.35,5.77,.78,11.53,.98,17.3,.22,6.06,1.86,11.58,5.37,16.56,4.62,6.56,7.73,13.82,9.41,21.65,.45,2.11,.55,4.3,.55,6.49,0,36.2-.01,72.39,.09,108.59,.03,10.57,.48,21.13,.61,31.7,.05,3.66-.6,7.28-1.51,10.83-1.03,4.01-3.48,6.93-6.99,9.01-4.77,2.82-10.03,4.08-15.43,4.9-4.65,.71-9.33,1.1-14.03,1.25-.35,.01-.7,.18-1.05,.28h-8.93Zm4.39-318.99h0c-4.15,.01-8.31-.03-12.46,.03-2.18,.03-2.77,1.06-1.81,2.97,.52,1.04,.77,2.12,.58,3.24-.56,3.3-1.18,6.59-1.79,9.88-.23,1.24-.41,2.36,.79,3.35,.75,.62,1.06,1.67,.97,2.72-.15,1.73-.2,3.48-.49,5.19-1.28,7.71-2.64,15.41-3.73,23.15-2.52,17.92-4.19,35.91-4.75,54-.27,8.89-2.31,17-7.65,24.42-5.86,8.14-8.42,17.63-8.42,27.7,0,5.15,.41,10.3,.42,15.45,.05,24.01,.07,48.01,0,72.02-.03,12.19-.16,24.38-.45,36.57-.12,5.28-.45,10.54,.07,15.83,.89,9.07,3.34,11.95,11.6,14.44,7.46,2.25,15.2,2.81,22.91,3.14,7.93,.34,15.85-.23,23.69-1.5,4.58-.74,9.12-1.65,13.19-4.13,2.59-1.58,4.29-3.72,4.86-6.71,.34-1.76,.67-3.53,.9-5.32,.74-5.52,.12-11.04,.09-16.57-.1-16.1-.64-32.19-.19-48.29,.2-7-.19-14.01-.22-21.02-.08-17.91-.11-35.82,.3-53.73,.21-9.29-2.3-17.94-6.99-25.94-1.5-2.57-3.35-4.93-4.82-7.52-3.16-5.55-3.8-11.74-4.1-17.97-.55-11.53-.98-23.07-2.28-34.56-.95-8.39-1.97-16.77-3.21-25.12-1.03-6.94-2.25-13.84-3.35-20.77-.35-2.24-.51-4.51,1.49-6.2,.56-.47,.34-1.01,.25-1.53-.57-3.05-1.19-6.09-1.74-9.14-.28-1.59-.51-3.19,.23-4.75,1.16-2.45,.6-3.31-2.19-3.32-3.91-.01-7.81,0-11.72,0Z"/>
    <g class="cls-8">
      <rect class="cls-1" x="64.02" y="32.77" width="360.46" height="410.14"/>
    </g>
    <path class="cls-4" d="M231.2,407.46c-3.11-.64-6.28-.43-9.41-.77-6.52-.71-12.93-1.72-19.02-4.37-5.59-2.44-8.59-6.61-9.84-12.54-1.42-6.72-1.19-13.43-.91-20.19,.28-6.71,.41-13.43,.42-20.14,.06-31.1,.06-62.19,.07-93.29,0-6.83-.1-13.68,.47-20.48,.45-5.42,2.61-10.42,4.96-15.28,1.33-2.74,2.88-5.35,4.66-7.82,3.44-4.79,4.92-10.19,5.24-16.03,.5-9.24,.93-18.48,1.71-27.7,.66-7.85,1.41-15.69,2.39-23.5,1.14-9.15,2.46-18.28,4.22-27.34,.37-1.88,.58-3.8,.84-5.7,.07-.49,.19-1.09-.25-1.41-2.47-1.8-1.79-4.31-1.43-6.66,.43-2.81,1.08-5.58,1.65-8.37,.22-1.06,.15-2-.41-3.02-2-3.63,.91-8.85,5.03-8.95,9.05-.22,18.1-.55,27.15-.04,4.95,.28,7.69,5.01,5.42,9.41-.45,.87-.36,1.69-.18,2.52,.73,3.51,1.46,7.02,1.93,10.59,.21,1.58,0,3.01-1.26,4.06-.74,.62-.82,1.32-.68,2.16,1.42,8.86,3,17.7,4.22,26.59,.95,6.99,1.82,13.99,2.38,21.04,.5,6.22,1.19,12.44,1.56,18.67,.35,5.77,.78,11.53,.98,17.3,.22,6.06,1.86,11.58,5.37,16.56,4.62,6.56,7.73,13.82,9.41,21.65,.45,2.11,.55,4.3,.55,6.49,0,36.2-.01,72.39,.09,108.59,.03,10.57,.48,21.13,.61,31.7,.05,3.66-.6,7.28-1.51,10.83-1.03,4.01-3.48,6.93-6.99,9.01-4.77,2.82-10.03,4.08-15.43,4.9-4.65,.71-9.33,1.1-14.03,1.25-.35,.01-.7,.18-1.05,.28h-8.93Zm4.39-318.99h0c-4.15,.01-8.31-.03-12.46,.03-2.18,.03-2.77,1.06-1.81,2.97,.52,1.04,.77,2.12,.58,3.24-.56,3.3-1.18,6.59-1.79,9.88-.23,1.24-.41,2.36,.79,3.35,.75,.62,1.06,1.67,.97,2.72-.15,1.73-.2,3.48-.49,5.19-1.28,7.71-2.64,15.41-3.73,23.15-2.52,17.92-4.19,35.91-4.75,54-.27,8.89-2.31,17-7.65,24.42-5.86,8.14-8.42,17.63-8.42,27.7,0,5.15,.41,10.3,.42,15.45,.05,24.01,.07,48.01,0,72.02-.03,12.19-.16,24.38-.45,36.57-.12,5.28-.45,10.54,.07,15.83,.89,9.07,3.34,11.95,11.6,14.44,7.46,2.25,15.2,2.81,22.91,3.14,7.93,.34,15.85-.23,23.69-1.5,4.58-.74,9.12-1.65,13.19-4.13,2.59-1.58,4.29-3.72,4.86-6.71,.34-1.76,.67-3.53,.9-5.32,.74-5.52,.12-11.04,.09-16.57-.1-16.1-.64-32.19-.19-48.29,.2-7-.19-14.01-.22-21.02-.08-17.91-.11-35.82,.3-53.73,.21-9.29-2.3-17.94-6.99-25.94-1.5-2.57-3.35-4.93-4.82-7.52-3.16-5.55-3.8-11.74-4.1-17.97-.55-11.53-.98-23.07-2.28-34.56-.95-8.39-1.97-16.77-3.21-25.12-1.03-6.94-2.25-13.84-3.35-20.77-.35-2.24-.51-4.51,1.49-6.2,.56-.47,.34-1.01,.25-1.53-.57-3.05-1.19-6.09-1.74-9.14-.28-1.59-.51-3.19,.23-4.75,1.16-2.45,.6-3.31-2.19-3.32-3.91-.01-7.81,0-11.72,0Z"/>
  </g>
  <g>
    <path class="cls-2" d="M318.07,407.51c-2.36-.49-4.78-.32-7.17-.59-4.96-.54-9.84-1.31-14.47-3.33-4.25-1.86-6.54-5.03-7.49-9.55-1.08-5.11-.91-10.22-.69-15.37,.21-5.11,.31-10.22,.32-15.33,.04-23.67,.04-47.34,.05-71.01,0-5.2-.07-10.41,.36-15.59,.34-4.12,1.99-7.93,3.78-11.63,1.01-2.08,2.19-4.07,3.55-5.95,2.62-3.64,3.75-7.76,3.99-12.2,.38-7.03,.71-14.07,1.3-21.09,.5-5.97,1.07-11.94,1.82-17.89,.87-6.97,1.87-13.92,3.22-20.81,.28-1.43,.44-2.89,.64-4.34,.05-.37,.14-.83-.19-1.07-1.88-1.37-1.36-3.28-1.09-5.07,.33-2.14,.82-4.25,1.25-6.37,.16-.81,.11-1.52-.31-2.3-1.52-2.76,.7-6.74,3.83-6.82,6.89-.17,13.78-.42,20.66-.03,3.77,.21,5.85,3.81,4.13,7.17-.34,.66-.27,1.29-.14,1.92,.56,2.67,1.11,5.35,1.47,8.06,.16,1.21,0,2.29-.96,3.09-.57,.47-.62,1-.52,1.64,1.08,6.74,2.29,13.47,3.21,20.24,.73,5.32,1.39,10.65,1.81,16.02,.38,4.74,.9,9.47,1.19,14.21,.26,4.39,.59,8.78,.75,13.17,.17,4.61,1.42,8.81,4.09,12.6,3.51,4.99,5.88,10.52,7.16,16.48,.34,1.6,.42,3.27,.42,4.94,0,27.55,0,55.1,.07,82.65,.02,8.04,.36,16.08,.46,24.13,.03,2.79-.46,5.54-1.15,8.24-.78,3.05-2.65,5.28-5.32,6.86-3.63,2.15-7.64,3.11-11.74,3.73-3.54,.54-7.1,.84-10.68,.95-.27,0-.54,.14-.8,.21h-6.8Zm3.34-242.81h0c-3.16,0-6.32-.03-9.49,.02-1.66,.02-2.11,.81-1.38,2.26,.4,.79,.59,1.61,.44,2.47-.43,2.51-.9,5.02-1.36,7.52-.18,.94-.31,1.79,.6,2.55,.57,.47,.81,1.27,.74,2.07-.12,1.32-.16,2.65-.37,3.95-.97,5.87-2.01,11.73-2.84,17.62-1.92,13.64-3.19,27.34-3.61,41.1-.21,6.77-1.75,12.94-5.82,18.59-4.46,6.2-6.41,13.42-6.41,21.09,0,3.92,.31,7.84,.32,11.76,.04,18.27,.05,36.55,0,54.82-.02,9.28-.12,18.56-.34,27.83-.09,4.02-.34,8.02,.05,12.05,.68,6.9,2.54,9.09,8.83,10.99,5.68,1.71,11.57,2.14,17.44,2.39,6.04,.26,12.06-.18,18.03-1.14,3.48-.56,6.95-1.26,10.04-3.15,1.97-1.2,3.26-2.83,3.7-5.11,.26-1.34,.51-2.69,.69-4.05,.56-4.2,.09-8.41,.07-12.61-.07-12.25-.49-24.5-.14-36.76,.15-5.33-.14-10.67-.16-16-.06-13.63-.08-27.27,.23-40.9,.16-7.07-1.75-13.66-5.32-19.74-1.15-1.95-2.55-3.76-3.67-5.72-2.4-4.23-2.89-8.94-3.12-13.68-.42-8.78-.75-17.56-1.74-26.3-.73-6.39-1.5-12.77-2.45-19.12-.78-5.28-1.71-10.54-2.55-15.81-.27-1.71-.39-3.43,1.13-4.72,.43-.36,.26-.77,.19-1.17-.44-2.32-.91-4.63-1.32-6.96-.22-1.21-.39-2.43,.17-3.62,.89-1.87,.45-2.52-1.67-2.53-2.97,0-5.95,0-8.92,0Z"/>
    <g class="cls-6">
      <rect class="cls-1" x="190.81" y="122.3" width="274.37" height="312.19"/>
    </g>
    <path class="cls-4" d="M318.07,407.51c-2.36-.49-4.78-.32-7.17-.59-4.96-.54-9.84-1.31-14.47-3.33-4.25-1.86-6.54-5.03-7.49-9.55-1.08-5.11-.91-10.22-.69-15.37,.21-5.11,.31-10.22,.32-15.33,.04-23.67,.04-47.34,.05-71.01,0-5.2-.07-10.41,.36-15.59,.34-4.12,1.99-7.93,3.78-11.63,1.01-2.08,2.19-4.07,3.55-5.95,2.62-3.64,3.75-7.76,3.99-12.2,.38-7.03,.71-14.07,1.3-21.09,.5-5.97,1.07-11.94,1.82-17.89,.87-6.97,1.87-13.92,3.22-20.81,.28-1.43,.44-2.89,.64-4.34,.05-.37,.14-.83-.19-1.07-1.88-1.37-1.36-3.28-1.09-5.07,.33-2.14,.82-4.25,1.25-6.37,.16-.81,.11-1.52-.31-2.3-1.52-2.76,.7-6.74,3.83-6.82,6.89-.17,13.78-.42,20.66-.03,3.77,.21,5.85,3.81,4.13,7.17-.34,.66-.27,1.29-.14,1.92,.56,2.67,1.11,5.35,1.47,8.06,.16,1.21,0,2.29-.96,3.09-.57,.47-.62,1-.52,1.64,1.08,6.74,2.29,13.47,3.21,20.24,.73,5.32,1.39,10.65,1.81,16.02,.38,4.74,.9,9.47,1.19,14.21,.26,4.39,.59,8.78,.75,13.17,.17,4.61,1.42,8.81,4.09,12.6,3.51,4.99,5.88,10.52,7.16,16.48,.34,1.6,.42,3.27,.42,4.94,0,27.55,0,55.1,.07,82.65,.02,8.04,.36,16.08,.46,24.13,.03,2.79-.46,5.54-1.15,8.24-.78,3.05-2.65,5.28-5.32,6.86-3.63,2.15-7.64,3.11-11.74,3.73-3.54,.54-7.1,.84-10.68,.95-.27,0-.54,.14-.8,.21h-6.8Zm3.34-242.81h0c-3.16,0-6.32-.03-9.49,.02-1.66,.02-2.11,.81-1.38,2.26,.4,.79,.59,1.61,.44,2.47-.43,2.51-.9,5.02-1.36,7.52-.18,.94-.31,1.79,.6,2.55,.57,.47,.81,1.27,.74,2.07-.12,1.32-.16,2.65-.37,3.95-.97,5.87-2.01,11.73-2.84,17.62-1.92,13.64-3.19,27.34-3.61,41.1-.21,6.77-1.75,12.94-5.82,18.59-4.46,6.2-6.41,13.42-6.41,21.09,0,3.92,.31,7.84,.32,11.76,.04,18.27,.05,36.55,0,54.82-.02,9.28-.12,18.56-.34,27.83-.09,4.02-.34,8.02,.05,12.05,.68,6.9,2.54,9.09,8.83,10.99,5.68,1.71,11.57,2.14,17.44,2.39,6.04,.26,12.06-.18,18.03-1.14,3.48-.56,6.95-1.26,10.04-3.15,1.97-1.2,3.26-2.83,3.7-5.11,.26-1.34,.51-2.69,.69-4.05,.56-4.2,.09-8.41,.07-12.61-.07-12.25-.49-24.5-.14-36.76,.15-5.33-.14-10.67-.16-16-.06-13.63-.08-27.27,.23-40.9,.16-7.07-1.75-13.66-5.32-19.74-1.15-1.95-2.55-3.76-3.67-5.72-2.4-4.23-2.89-8.94-3.12-13.68-.42-8.78-.75-17.56-1.74-26.3-.73-6.39-1.5-12.77-2.45-19.12-.78-5.28-1.71-10.54-2.55-15.81-.27-1.71-.39-3.43,1.13-4.72,.43-.36,.26-.77,.19-1.17-.44-2.32-.91-4.63-1.32-6.96-.22-1.21-.39-2.43,.17-3.62,.89-1.87,.45-2.52-1.67-2.53-2.97,0-5.95,0-8.92,0Z"/>
  </g>
  <g>
    <path class="cls-2" d="M146.14,407.46c-2.36-.49-4.78-.32-7.17-.59-4.96-.54-9.84-1.31-14.47-3.33-4.25-1.86-6.54-5.03-7.49-9.55-1.08-5.11-.91-10.22-.69-15.37,.21-5.11,.31-10.22,.32-15.33,.04-23.67,.04-47.34,.05-71.01,0-5.2-.07-10.41,.36-15.59,.34-4.12,1.99-7.93,3.78-11.63,1.01-2.08,2.19-4.07,3.55-5.95,2.62-3.64,3.75-7.76,3.99-12.2,.38-7.03,.71-14.07,1.3-21.09,.5-5.97,1.07-11.94,1.82-17.89,.87-6.97,1.87-13.92,3.22-20.81,.28-1.43,.44-2.89,.64-4.34,.05-.37,.14-.83-.19-1.07-1.88-1.37-1.36-3.28-1.09-5.07,.33-2.14,.82-4.25,1.25-6.37,.16-.81,.11-1.52-.31-2.3-1.52-2.76,.7-6.74,3.83-6.82,6.89-.17,13.78-.42,20.66-.03,3.77,.21,5.85,3.81,4.13,7.17-.34,.66-.27,1.29-.14,1.92,.56,2.67,1.11,5.35,1.47,8.06,.16,1.21,0,2.29-.96,3.09-.57,.47-.62,1-.52,1.64,1.08,6.74,2.29,13.47,3.21,20.24,.73,5.32,1.39,10.65,1.81,16.02,.38,4.74,.9,9.47,1.19,14.21,.26,4.39,.59,8.78,.75,13.17,.17,4.61,1.42,8.81,4.09,12.6,3.51,4.99,5.88,10.52,7.16,16.48,.34,1.6,.42,3.27,.42,4.94,0,27.55,0,55.1,.07,82.65,.02,8.04,.36,16.08,.46,24.13,.03,2.79-.46,5.54-1.15,8.24-.78,3.05-2.65,5.28-5.32,6.86-3.63,2.15-7.64,3.11-11.74,3.73-3.54,.54-7.1,.84-10.68,.95-.27,0-.54,.14-.8,.21h-6.8Zm3.34-242.81h0c-3.16,0-6.32-.03-9.49,.02-1.66,.02-2.11,.81-1.38,2.26,.4,.79,.59,1.61,.44,2.47-.43,2.51-.9,5.02-1.36,7.52-.18,.94-.31,1.79,.6,2.55,.57,.47,.81,1.27,.74,2.07-.12,1.32-.16,2.65-.37,3.95-.97,5.87-2.01,11.73-2.84,17.62-1.92,13.64-3.19,27.34-3.61,41.1-.21,6.77-1.75,12.94-5.82,18.59-4.46,6.2-6.41,13.42-6.41,21.09,0,3.92,.31,7.84,.32,11.76,.04,18.27,.05,36.55,0,54.82-.02,9.28-.12,18.56-.34,27.83-.09,4.02-.34,8.02,.05,12.05,.68,6.9,2.54,9.09,8.83,10.99,5.68,1.71,11.57,2.14,17.44,2.39,6.04,.26,12.06-.18,18.03-1.14,3.48-.56,6.95-1.26,10.04-3.15,1.97-1.2,3.26-2.83,3.7-5.11,.26-1.34,.51-2.69,.69-4.05,.56-4.2,.09-8.41,.07-12.61-.07-12.25-.49-24.5-.14-36.76,.15-5.33-.14-10.67-.16-16-.06-13.63-.08-27.27,.23-40.9,.16-7.07-1.75-13.66-5.32-19.74-1.15-1.95-2.55-3.76-3.67-5.72-2.4-4.23-2.89-8.94-3.12-13.68-.42-8.78-.75-17.56-1.74-26.3-.73-6.39-1.5-12.77-2.45-19.12-.78-5.28-1.71-10.54-2.55-15.81-.27-1.71-.39-3.43,1.13-4.72,.43-.36,.26-.77,.19-1.17-.44-2.32-.91-4.63-1.32-6.96-.22-1.21-.39-2.43,.17-3.62,.89-1.87,.45-2.52-1.67-2.53-2.97,0-5.95,0-8.92,0Z"/>
    <g class="cls-7">
      <rect class="cls-1" x="18.88" y="122.25" width="274.37" height="312.19"/>
    </g>
    <path class="cls-4" d="M146.14,407.46c-2.36-.49-4.78-.32-7.17-.59-4.96-.54-9.84-1.31-14.47-3.33-4.25-1.86-6.54-5.03-7.49-9.55-1.08-5.11-.91-10.22-.69-15.37,.21-5.11,.31-10.22,.32-15.33,.04-23.67,.04-47.34,.05-71.01,0-5.2-.07-10.41,.36-15.59,.34-4.12,1.99-7.93,3.78-11.63,1.01-2.08,2.19-4.07,3.55-5.95,2.62-3.64,3.75-7.76,3.99-12.2,.38-7.03,.71-14.07,1.3-21.09,.5-5.97,1.07-11.94,1.82-17.89,.87-6.97,1.87-13.92,3.22-20.81,.28-1.43,.44-2.89,.64-4.34,.05-.37,.14-.83-.19-1.07-1.88-1.37-1.36-3.28-1.09-5.07,.33-2.14,.82-4.25,1.25-6.37,.16-.81,.11-1.52-.31-2.3-1.52-2.76,.7-6.74,3.83-6.82,6.89-.17,13.78-.42,20.66-.03,3.77,.21,5.85,3.81,4.13,7.17-.34,.66-.27,1.29-.14,1.92,.56,2.67,1.11,5.35,1.47,8.06,.16,1.21,0,2.29-.96,3.09-.57,.47-.62,1-.52,1.64,1.08,6.74,2.29,13.47,3.21,20.24,.73,5.32,1.39,10.65,1.81,16.02,.38,4.74,.9,9.47,1.19,14.21,.26,4.39,.59,8.78,.75,13.17,.17,4.61,1.42,8.81,4.09,12.6,3.51,4.99,5.88,10.52,7.16,16.48,.34,1.6,.42,3.27,.42,4.94,0,27.55,0,55.1,.07,82.65,.02,8.04,.36,16.08,.46,24.13,.03,2.79-.46,5.54-1.15,8.24-.78,3.05-2.65,5.28-5.32,6.86-3.63,2.15-7.64,3.11-11.74,3.73-3.54,.54-7.1,.84-10.68,.95-.27,0-.54,.14-.8,.21h-6.8Zm3.34-242.81h0c-3.16,0-6.32-.03-9.49,.02-1.66,.02-2.11,.81-1.38,2.26,.4,.79,.59,1.61,.44,2.47-.43,2.51-.9,5.02-1.36,7.52-.18,.94-.31,1.79,.6,2.55,.57,.47,.81,1.27,.74,2.07-.12,1.32-.16,2.65-.37,3.95-.97,5.87-2.01,11.73-2.84,17.62-1.92,13.64-3.19,27.34-3.61,41.1-.21,6.77-1.75,12.94-5.82,18.59-4.46,6.2-6.41,13.42-6.41,21.09,0,3.92,.31,7.84,.32,11.76,.04,18.27,.05,36.55,0,54.82-.02,9.28-.12,18.56-.34,27.83-.09,4.02-.34,8.02,.05,12.05,.68,6.9,2.54,9.09,8.83,10.99,5.68,1.71,11.57,2.14,17.44,2.39,6.04,.26,12.06-.18,18.03-1.14,3.48-.56,6.95-1.26,10.04-3.15,1.97-1.2,3.26-2.83,3.7-5.11,.26-1.34,.51-2.69,.69-4.05,.56-4.2,.09-8.41,.07-12.61-.07-12.25-.49-24.5-.14-36.76,.15-5.33-.14-10.67-.16-16-.06-13.63-.08-27.27,.23-40.9,.16-7.07-1.75-13.66-5.32-19.74-1.15-1.95-2.55-3.76-3.67-5.72-2.4-4.23-2.89-8.94-3.12-13.68-.42-8.78-.75-17.56-1.74-26.3-.73-6.39-1.5-12.77-2.45-19.12-.78-5.28-1.71-10.54-2.55-15.81-.27-1.71-.39-3.43,1.13-4.72,.43-.36,.26-.77,.19-1.17-.44-2.32-.91-4.63-1.32-6.96-.22-1.21-.39-2.43,.17-3.62,.89-1.87,.45-2.52-1.67-2.53-2.97,0-5.95,0-8.92,0Z"/>
  </g>
  <g>
    <path class="cls-2" d="M482.68,357.06c-10.52,0-21.32-.87-31.55-2.63v-43.25c10.8,2.63,22.2,4.97,33.59,4.97,9.94,0,23.08-2.04,23.08-14.9,0-7.01-9.92-12.27-22.2-18.41-20.15-10.52-46.47-23.96-46.47-53.76,0-26.88,22.51-44.12,46.18-51.13,11.09-3.21,23.08-4.68,34.76-4.68,9.64,0,19.58,.88,28.93,2.63v44.41c-9.35-3.21-19.3-5.26-29.22-5.26-7.9,0-24.24,1.75-24.24,12.86,0,6.72,9.35,11.4,21.32,17.53,20.18,10.52,47.35,24.55,47.35,56.98,0,42.37-47.06,54.64-81.53,54.64Z"/>
    <path class="cls-2" d="M650.48,255.96v96.71h-46.47v-96.71h-27.17v-37.7h27.17v-45.87h46.47v45.87h42.66v37.7h-42.66Z"/>
    <path class="cls-2" d="M786.69,352.67v-27.47c-9.92,20.45-26.86,33.02-49.96,33.02-28.62,0-46.44-26-46.44-52.59,0-75.68,83.84-89.12,142.87-89.12v136.16h-46.47Zm-47.04-56.1c0,8.18,4.69,13.73,13.16,13.73,4.97,0,9.64-1.75,14.01-4.38,14.32-9.06,19.87-27.18,19.87-43.24-17.23,2.63-47.04,12.27-47.04,33.89Z"/>
    <path class="cls-2" d="M1036.31,352.67v-69.83c-26.58,14.9-38.28,42.66-47.92,69.83h-42.06v-69.83c-26.31,14.9-38.28,42.66-47.63,69.83h-42.09V218.26h46.47v58.74c18.99-38.28,48.51-55.23,89.69-60.48v60.48c19.01-38.28,48.51-55.23,90-60.48v136.16h-46.47Z"/>
  </g>
</svg>