<svg xmlns="http://www.w3.org/2000/svg" version="1.2" viewBox="128 121.7 189.994140625 1" width="1024px" style="height:auto;aspect-ratio: 512/512;">
    <g fill-rule="evenodd" stroke-linecap="square" stroke-linejoin="bevel">
        
        <g transform="matrix(1.6441 0 0 1.6441 60.201 -46.195)" fill="#285a84">
            <path d="m99.018 44.568c-31.86 0-57.781 25.921-57.781 57.781s25.921 57.781 57.781 57.781 57.78-25.921 57.78-57.781-25.92-57.781-57.78-57.781m0 112.56c-30.206 0-54.781-24.575-54.781-54.781s24.575-54.781 54.781-54.781 54.78 24.575 54.78 54.781-24.574 54.781-54.78 54.781" fill-rule="nonzero"/>
        </g>
        <g transform="matrix(1.6441 0 0 1.6441 60.201 -46.195)" fill="#285a84">
            <path d="m99.018 53.058c-27.18 0-49.292 22.112-49.292 49.292 0 0.828 0.6716 1.5 1.5 1.5s1.5-0.672 1.5-1.5c0-25.525 20.767-46.292 46.292-46.292s46.291 20.767 46.291 46.292c0 0.828 0.672 1.5 1.5 1.5s1.5-0.672 1.5-1.5c0-27.18-22.113-49.292-49.291-49.292" fill-rule="nonzero"/>
        </g>
        <g transform="matrix(1.6441 0 0 1.6441 60.201 -46.195)" fill="#285a84">
            <path d="m132.05 104.78h-11.517v-3.617l-2e-3 -0.024 2e-3 -0.023v-7.134h5.55c0.828 0 1.5-0.6716 1.5-1.5v-13.623c0-0.8284-0.672-1.5-1.5-1.5h-5.55v-1.283c0.083-0.09 0.16-0.187 0.222-0.3 0.977-1.794 0.768-3.121 0.419-3.918-0.45-1.032-1.298-1.62-1.934-1.932-0.571-1.263-1.429-1.841-2.096-2.105-0.801-0.317-1.61-0.307-2.289-0.182-0.729-1.791-1.831-3.025-3.292-3.682-1.88-0.844-3.819-0.438-4.914-0.068-0.783-0.4583-1.693-0.6482-2.594-0.541-1.734 0.209-3.121 1.447-3.862 2.263-0.2937-0.0044-0.5873 0.0147-0.878 0.057-2.084-2.641-5.134-2.475-7.088-1.789-0.7789-0.4502-1.6826-0.6362-2.576-0.53-1.734 0.209-3.121 1.447-3.862 2.263-1.451-0.032-2.442 0.457-3.035 0.931-0.762 0.608-1.185 1.389-1.42 2.05-1.277 0.244-2.383 1.015-3.141 2.223-0.918 1.462-1.087 3.198-0.42 4.321 0.099 0.167 0.234 0.299 0.38 0.414v25.567c0 0.03 7e-3 0.058 9e-3 0.088-2e-3 0.03-9e-3 0.058-9e-3 0.088v3.488h-12.16c-0.8284 0-1.5 0.672-1.5 1.5v32.684c0 0.828 0.6716 1.5 1.5 1.5h66.057c0.828 0 1.5-0.672 1.5-1.5v-32.684c0-0.83-0.672-1.502-1.5-1.502m-14.517-25.921v20.811l-2.108 0.011v-19.449c0-0.8284-0.672-1.5-1.5-1.5s-1.5 0.6716-1.5 1.5v19.465l-2.109 0.011v-19.476c0-0.8284-0.672-1.5-1.5-1.5s-1.5 0.6716-1.5 1.5v19.491l-2.108 0.011v-19.502c0-0.8284-0.672-1.5-1.5-1.5s-1.5 0.6716-1.5 1.5v19.517l-2.108 0.011v-19.528c0-0.8284-0.6716-1.5-1.5-1.5s-1.5 0.6716-1.5 1.5v19.544l-1.541 8e-3v-23.398h21.976v2.473h-2e-3m-21.975 23.925 21.976-0.113v1.092l-21.976 0.113v-1.092m-3-26.398v23.339l-1.755 9e-3v-19.502c0-0.8284-0.6716-1.5-1.5-1.5s-1.5 0.6716-1.5 1.5v19.517l-2.108 0.011v-19.528c0-0.8284-0.6716-1.5-1.5-1.5s-1.5 0.6716-1.5 1.5v19.544l-1.541 8e-3v-23.398h11.404m-11.405 26.398 11.404-0.06v1.093l-11.404 0.058v-1.091m43.43-22.425v10.623h-4.05v-10.623h4.05m-23.987-11.698c0.564 0.0933 1.132-0.1412 1.466-0.605 0.298-0.412 1.37-1.613 2.358-1.729 0.244-0.033 0.588-0.011 1.052 0.392 0.464 0.3952 1.119 0.4743 1.664 0.201 0.018-0.01 1.776-0.875 3.214-0.218 0.962 0.438 1.668 1.521 2.097 3.213 0.117 0.4505 0.436 0.8215 0.864 1.0053s0.916 0.1597 1.324-0.0653c0.269-0.146 0.994-0.408 1.408-0.243 0.302 0.123 0.489 0.558 0.593 0.899 0.153 0.503 0.558 0.889 1.066 1.019 0.068 0.018 0.586 0.218 0.723 0.529 0.036 0.1051 0.046 0.2172 0.03 0.327h-23.669c0.0573-0.4482 0.24-0.871 0.527-1.22 0.403-0.49 0.896-0.697 1.503-0.65 0.404 0.04 0.806-0.094 1.112-0.36 0.307-0.266 0.492-0.645 0.516-1.049 0-8e-3 0.085-0.818 0.589-1.222 0.331-0.266 0.857-0.341 1.563-0.224m-18.185 2.855c0.406 0.04 0.806-0.094 1.112-0.36 0.307-0.266 0.492-0.645 0.516-1.049 0-8e-3 0.085-0.818 0.589-1.222 0.332-0.266 0.857-0.341 1.563-0.224 0.5639 0.0926 1.1316-0.1417 1.466-0.605 0.298-0.412 1.37-1.613 2.358-1.729 0.244-0.033 0.588-0.011 1.052 0.392 0.4649 0.4018 1.1278 0.4795 1.673 0.196 0.263-0.137 2.292-1.11 3.828 0.215-0.4 0.48-0.665 0.999-0.83 1.461-1.277 0.244-2.383 1.015-3.141 2.223-0.517 0.824-0.787 1.732-0.813 2.571h-11.403c0.0573-0.4482 0.24-0.8711 0.527-1.22 0.404-0.489 0.897-0.696 1.503-0.649m48.139 65.948h-63.057v-29.684h63.057v29.684" fill-rule="nonzero"/>
        </g>
        <g transform="matrix(1.6441 0 0 1.6441 60.201 -46.195)" fill="#285a84">
            <path d="m73.435 122.63c0 0.828 0.6716 1.5 1.5 1.5h12.78c0.738 5.585 5.519 9.913 11.303 9.913s10.564-4.328 11.303-9.913h12.78c0.828 0 1.5-0.672 1.5-1.5s-0.672-1.5-1.5-1.5h-12.78c-0.738-5.585-5.519-9.913-11.303-9.913s-10.564 4.328-11.303 9.913h-12.78c-0.8284 0-1.5 0.672-1.5 1.5m25.583 8.413c-4.126 0-7.561-2.989-8.271-6.913h16.543c-0.712 3.925-4.146 6.913-8.272 6.913m0-16.826c4.126 0 7.561 2.989 8.271 6.913h-16.543c0.711-3.924 4.146-6.913 8.272-6.913" fill-rule="nonzero"/>
        </g>
        <g transform="matrix(1.6441 0 0 1.6441 60.201 -46.195)" fill="#285a84">
            <path d="m72.808 117.01c0.8284 0 1.5-0.672 1.5-1.5v-3.614c0-0.828-0.6716-1.5-1.5-1.5s-1.5 0.672-1.5 1.5v3.614c0 0.828 0.6716 1.5 1.5 1.5" fill-rule="nonzero"/>
        </g>
        <g transform="matrix(1.6441 0 0 1.6441 60.201 -46.195)" fill="#285a84">
            <path d="m126.25 134.86c0.828 0 1.5-0.672 1.5-1.5v-3.614c0-0.828-0.672-1.5-1.5-1.5s-1.5 0.672-1.5 1.5v3.614c0 0.828 0.672 1.5 1.5 1.5" fill-rule="nonzero"/>
        </g>
        
    </g>
</svg>