<?xml version="1.0" encoding="utf-8"?>
<!-- Generator: Adobe Illustrator 22.0.0, SVG Export Plug-In . SVG Version: 6.00 Build 0)  -->
<svg version="1.1" id="Layer_1" xmlns="http://www.w3.org/2000/svg" xmlns:xlink="http://www.w3.org/1999/xlink" x="0px" y="0px"
	 viewBox="0 0 379.6 291.2" style="enable-background:new 0 0 379.6 291.2;" xml:space="preserve">
<style type="text/css">
	.st0{fill:#EF6F53;}
	.st1{fill:#285A84;}
</style>
<g>
	<g transform="matrix(2.1296 0 0 2.1296 28.485 301.56)">
		<path class="st0" d="M10.5-19.4c-0.8,2.5-2.1,4.5-4.1,5.8c-2,1.3-4.3,1.9-7.1,1.9c-2.6,0-4.8-0.5-6.8-1.6
			c-1.9-1.1-3.4-2.7-4.4-4.7s-1.5-4.5-1.5-7.3s0.5-5.2,1.5-7.3s2.5-3.6,4.4-4.7c1.9-1.1,4.1-1.6,6.7-1.6c2.7,0,5.1,0.6,7,1.7
			c1.9,1.2,3.2,2.9,3.9,5.1l-5,2.1c-0.4-1.6-1.1-2.7-2-3.4c-0.9-0.7-2.1-1-3.7-1c-2.2,0-4,0.8-5.3,2.4c-1.3,1.6-1.9,3.8-1.9,6.8
			s0.6,5.2,1.8,6.8c1.2,1.6,3,2.4,5.2,2.4c3.2,0,5.2-1.6,6.1-4.7L10.5-19.4 M26.6-32.6c2.2,0,3.9,0.6,5.2,1.9c1.3,1.3,2,3.1,2,5.4
			v13.2h-5.5v-11.6c0-3.1-1.2-4.6-3.6-4.6c-1.3,0-2.4,0.5-3.3,1.4c-0.9,0.9-1.3,2.3-1.3,4.2v10.6h-5.5V-41h5.5v12.2
			c0.6-1.3,1.5-2.2,2.6-2.9S25.1-32.6,26.6-32.6 M58.1-22.2c0,0.8-0.1,1.5-0.2,2.2H43.8c0.6,2.8,2.2,4.3,5,4.3
			c1.1,0,2.1-0.2,2.8-0.6c0.7-0.4,1.3-1,1.6-1.8l4.5,1.6c-0.6,1.6-1.7,2.8-3.2,3.7s-3.4,1.3-5.7,1.3c-3.3,0-5.9-0.9-7.7-2.8
			c-1.8-1.8-2.7-4.4-2.7-7.7s0.9-5.9,2.6-7.7c1.8-1.8,4.2-2.8,7.4-2.8c3.1,0,5.5,0.9,7.1,2.7S58.1-25.6,58.1-22.2 M48.4-28.6
			c-1.3,0-2.4,0.4-3.2,1.2s-1.3,1.9-1.5,3.5H53c-0.2-1.5-0.7-2.6-1.5-3.4C50.7-28.2,49.7-28.6,48.4-28.6 M69.2-34.2v2h6.3v4.1h-6.1
			v16H64v-16h-3.5v-4.1H64v-2.4c0-2.2,0.7-3.9,2-5c1.4-1.2,3.2-1.7,5.5-1.7c0.9,0,1.7,0.1,2.4,0.3c0.7,0.2,1.3,0.4,1.7,0.8l-0.8,3.7
			c-0.6-0.4-1.4-0.6-2.3-0.6C70.4-37.3,69.2-36.3,69.2-34.2 M90.6-12.1v-26.5h11.5c3.1,0,5.5,0.6,7,1.9c1.5,1.2,2.3,3,2.3,5.4
			c0,1.5-0.4,2.8-1.3,3.8s-2.1,1.8-3.7,2v0c1.8,0.3,3.2,1,4.2,2.1s1.5,2.5,1.5,4c0,2.3-0.8,4.1-2.5,5.4s-4,1.9-7.2,1.9L90.6-12.1
			 M96-27.5h5.4c2.9,0,4.4-1.1,4.4-3.4s-1.5-3.4-4.4-3.4H96V-27.5 M96-16.3h6.1c1.5,0,2.6-0.3,3.3-0.9s1.1-1.5,1.1-2.6
			c0-1.1-0.4-2-1.1-2.6s-1.8-0.9-3.3-0.9H96V-16.3 M119.7-35.1c-2.3,0-3.4-1-3.4-2.9c0-2,1.1-3,3.4-3s3.4,1,3.4,3
			C123-36.1,121.9-35.1,119.7-35.1 M122.4-32.2v20.1h-5.5v-20.1H122.4 M146.8-22.2c0,0.8-0.1,1.5-0.2,2.2h-14.1
			c0.6,2.8,2.2,4.3,5,4.3c1.1,0,2.1-0.2,2.8-0.6c0.7-0.4,1.3-1,1.6-1.8l4.5,1.6c-0.6,1.6-1.7,2.8-3.2,3.7s-3.4,1.3-5.7,1.3
			c-3.3,0-5.9-0.9-7.7-2.8c-1.8-1.8-2.7-4.4-2.7-7.7s0.9-5.9,2.6-7.7s4.2-2.8,7.4-2.8c3.1,0,5.5,0.9,7.1,2.7S146.8-25.6,146.8-22.2
			 M137.2-28.6c-1.3,0-2.4,0.4-3.2,1.2s-1.3,1.9-1.5,3.5h9.3c-0.2-1.5-0.7-2.6-1.5-3.4S138.4-28.6,137.2-28.6 M162.7-32.6
			c0.9,0,1.7,0.1,2.2,0.4l-0.7,4.8c-0.6-0.4-1.5-0.6-2.5-0.6c-1.3,0-2.4,0.5-3.4,1.4c-0.9,1-1.4,2.3-1.4,4v10.4h-5.5v-20.1h4.8
			l0.4,3.9C157.6-31.2,159.7-32.6,162.7-32.6"/>
	</g>
	<g transform="matrix(1.6441 0 0 1.6441 60.201 -46.195)">
		<path class="st1" d="M78.8,28.1c-31.8,0-57.7,26-57.7,58s25.9,58,57.7,58s57.7-26,57.7-58S110.7,28.1,78.8,28.1 M78.8,141.2
			c-30.2,0-54.7-24.7-54.7-55s24.6-55,54.7-55s54.7,24.7,54.7,55S109,141.2,78.8,141.2"/>
	</g>
	<g transform="matrix(1.6441 0 0 1.6441 60.201 -46.195)">
		<path class="st1" d="M78.8,36.6c-27.2,0-49.2,22.2-49.2,49.5c0,0.8,0.7,1.5,1.5,1.5s1.5-0.7,1.5-1.5c0-25.6,20.7-46.5,46.2-46.5
			s46.2,20.9,46.2,46.5c0,0.8,0.7,1.5,1.5,1.5c0.8,0,1.5-0.7,1.5-1.5C128.1,58.8,106,36.6,78.8,36.6"/>
	</g>
	<g transform="matrix(1.6441 0 0 1.6441 60.201 -46.195)">
		<path class="st1" d="M111.8,88.6h-11.5V85l0,0l0,0v-7.2h5.5c0.8,0,1.5-0.7,1.5-1.5V62.5c0-0.8-0.7-1.5-1.5-1.5h-5.5v-1.3
			c0.1-0.1,0.2-0.2,0.2-0.3c1-1.8,0.8-3.1,0.4-3.9c-0.4-1-1.3-1.6-1.9-1.9c-0.6-1.3-1.4-1.8-2.1-2.1c-0.8-0.3-1.6-0.3-2.3-0.2
			c-0.7-1.8-1.8-3-3.3-3.7c-1.9-0.8-3.8-0.4-4.9-0.1c-0.8-0.5-1.7-0.7-2.6-0.5c-1.7,0.2-3.1,1.5-3.9,2.3c-0.3,0-0.6,0-0.9,0.1
			C77,46.6,74,46.8,72,47.5c-0.8-0.5-1.7-0.6-2.6-0.5c-1.7,0.2-3.1,1.5-3.9,2.3c-1.4,0-2.4,0.5-3,0.9c-0.8,0.6-1.2,1.4-1.4,2.1
			c-1.3,0.2-2.4,1-3.1,2.2c-0.9,1.5-1.1,3.2-0.4,4.3c0.1,0.2,0.2,0.3,0.4,0.4v25.7c0,0,0,0.1,0,0.1c0,0,0,0.1,0,0.1v3.5H45.8
			c-0.8,0-1.5,0.7-1.5,1.5v32.8c0,0.8,0.7,1.5,1.5,1.5h66c0.8,0,1.5-0.7,1.5-1.5V90.1C113.3,89.3,112.7,88.6,111.8,88.6 M97.3,62.5
			v20.9l-2.1,0V63.9c0-0.8-0.7-1.5-1.5-1.5s-1.5,0.7-1.5,1.5v19.6l-2.1,0V63.9c0-0.8-0.7-1.5-1.5-1.5c-0.8,0-1.5,0.7-1.5,1.5v19.6
			l-2.1,0V63.9c0-0.8-0.7-1.5-1.5-1.5S82,63.1,82,63.9v19.6l-2.1,0V63.9c0-0.8-0.7-1.5-1.5-1.5c-0.8,0-1.5,0.7-1.5,1.5v19.6l-1.5,0
			V60.1h22L97.3,62.5L97.3,62.5 M75.4,86.6l22-0.1v1.1l-22,0.1V86.6 M72.4,60.1v23.4l-1.8,0V63.9c0-0.8-0.7-1.5-1.5-1.5
			c-0.8,0-1.5,0.7-1.5,1.5v19.6l-2.1,0V63.9c0-0.8-0.7-1.5-1.5-1.5c-0.8,0-1.5,0.7-1.5,1.5v19.6l-1.5,0V60.1H72.4 M61,86.6l11.4-0.1
			v1.1L61,87.7V86.6 M104.4,64.1v10.7h-4V64.1H104.4 M80.4,52.3c0.6,0.1,1.1-0.1,1.5-0.6c0.3-0.4,1.4-1.6,2.4-1.7
			c0.2,0,0.6,0,1.1,0.4c0.5,0.4,1.1,0.5,1.7,0.2c0,0,1.8-0.9,3.2-0.2c1,0.4,1.7,1.5,2.1,3.2c0.1,0.5,0.4,0.8,0.9,1
			c0.4,0.2,0.9,0.2,1.3-0.1c0.3-0.1,1-0.4,1.4-0.2c0.3,0.1,0.5,0.6,0.6,0.9c0.2,0.5,0.6,0.9,1.1,1c0.1,0,0.6,0.2,0.7,0.5
			c0,0.1,0,0.2,0,0.3H74.6c0.1-0.5,0.2-0.9,0.5-1.2c0.4-0.5,0.9-0.7,1.5-0.7c0.4,0,0.8-0.1,1.1-0.4c0.3-0.3,0.5-0.6,0.5-1.1
			c0,0,0.1-0.8,0.6-1.2C79.2,52.3,79.7,52.2,80.4,52.3 M62.2,55.2c0.4,0,0.8-0.1,1.1-0.4c0.3-0.3,0.5-0.6,0.5-1.1
			c0,0,0.1-0.8,0.6-1.2c0.3-0.3,0.9-0.3,1.6-0.2c0.6,0.1,1.1-0.1,1.5-0.6c0.3-0.4,1.4-1.6,2.4-1.7c0.2,0,0.6,0,1.1,0.4
			c0.5,0.4,1.1,0.5,1.7,0.2c0.3-0.1,2.3-1.1,3.8,0.2c-0.4,0.5-0.7,1-0.8,1.5c-1.3,0.2-2.4,1-3.1,2.2c-0.5,0.8-0.8,1.7-0.8,2.6H60.2
			c0.1-0.5,0.2-0.9,0.5-1.2C61.1,55.3,61.6,55.1,62.2,55.2 M110.3,121.4h-63V91.6h63V121.4"/>
	</g>
	<g transform="matrix(1.6441 0 0 1.6441 60.201 -46.195)">
		<path class="st1" d="M53.3,106.5c0,0.8,0.7,1.5,1.5,1.5h12.8c0.7,5.6,5.5,10,11.3,10s10.6-4.3,11.3-10h12.8c0.8,0,1.5-0.7,1.5-1.5
			s-0.7-1.5-1.5-1.5H90.1c-0.7-5.6-5.5-10-11.3-10s-10.6,4.3-11.3,10H54.8C53.9,105,53.3,105.7,53.3,106.5 M78.8,115
			c-4.1,0-7.6-3-8.3-6.9h16.5C86.4,112,83,115,78.8,115 M78.8,98.1c4.1,0,7.6,3,8.3,6.9H70.6C71.3,101.1,74.7,98.1,78.8,98.1"/>
	</g>
	<g transform="matrix(1.6441 0 0 1.6441 60.201 -46.195)">
		<path class="st1" d="M52.6,100.9c0.8,0,1.5-0.7,1.5-1.5v-3.6c0-0.8-0.7-1.5-1.5-1.5s-1.5,0.7-1.5,1.5v3.6
			C51.1,100.2,51.8,100.9,52.6,100.9"/>
	</g>
	<g transform="matrix(1.6441 0 0 1.6441 60.201 -46.195)">
		<path class="st1" d="M106,118.8c0.8,0,1.5-0.7,1.5-1.5v-3.6c0-0.8-0.7-1.5-1.5-1.5c-0.8,0-1.5,0.7-1.5,1.5v3.6
			C104.5,118.1,105.2,118.8,106,118.8"/>
	</g>
	<g transform="translate(33 310.29)">
		<path class="st1" d="M-33-25.8h379.6v6.7H-33V-25.8"/>
	</g>
</g>
</svg>
