<?xml version="1.0" standalone="no"?>
<svg xmlns:xlink="http://www.w3.org/1999/xlink" id="wave" style="transform:rotate(0deg); transition: 0.3s" viewBox="0 0 1440 490" version="1.1" xmlns="http://www.w3.org/2000/svg"><defs><linearGradient id="sw-gradient-0" x1="0" x2="0" y1="1" y2="0"><stop stop-color="rgba(40, 90, 132, 1)" offset="0%"/><stop stop-color="rgba(201.834, 212.4, 221.275, 1)" offset="100%"/></linearGradient></defs><path style="transform:translate(0, 0px); opacity:1" fill="url(#sw-gradient-0)" d="M0,196L48,212.3C96,229,192,261,288,253.2C384,245,480,196,576,220.5C672,245,768,343,864,318.5C960,294,1056,147,1152,122.5C1248,98,1344,196,1440,204.2C1536,212,1632,131,1728,130.7C1824,131,1920,212,2016,269.5C2112,327,2208,359,2304,375.7C2400,392,2496,392,2592,375.7C2688,359,2784,327,2880,261.3C2976,196,3072,98,3168,49C3264,0,3360,0,3456,16.3C3552,33,3648,65,3744,81.7C3840,98,3936,98,4032,106.2C4128,114,4224,131,4320,155.2C4416,180,4512,212,4608,212.3C4704,212,4800,180,4896,155.2C4992,131,5088,114,5184,155.2C5280,196,5376,294,5472,351.2C5568,408,5664,425,5760,432.8C5856,441,5952,441,6048,416.5C6144,392,6240,343,6336,326.7C6432,310,6528,327,6624,310.3C6720,294,6816,245,6864,220.5L6912,196L6912,490L6864,490C6816,490,6720,490,6624,490C6528,490,6432,490,6336,490C6240,490,6144,490,6048,490C5952,490,5856,490,5760,490C5664,490,5568,490,5472,490C5376,490,5280,490,5184,490C5088,490,4992,490,4896,490C4800,490,4704,490,4608,490C4512,490,4416,490,4320,490C4224,490,4128,490,4032,490C3936,490,3840,490,3744,490C3648,490,3552,490,3456,490C3360,490,3264,490,3168,490C3072,490,2976,490,2880,490C2784,490,2688,490,2592,490C2496,490,2400,490,2304,490C2208,490,2112,490,2016,490C1920,490,1824,490,1728,490C1632,490,1536,490,1440,490C1344,490,1248,490,1152,490C1056,490,960,490,864,490C768,490,672,490,576,490C480,490,384,490,288,490C192,490,96,490,48,490L0,490Z"/></svg>